<?xml version="1.0" encoding="UTF-8"?>
<svg version="1.1" xmlns="http://www.w3.org/2000/svg" width="512" height="512">
<path d="M0 0 C1.40510059 -0.00302908 2.81019952 -0.00692231 4.21529561 -0.01159257 C8.03494877 -0.02178424 11.85450714 -0.01971356 15.67416775 -0.01541197 C19.80998478 -0.01292848 23.94577992 -0.02197899 28.08158875 -0.02944946 C36.16870545 -0.04215433 44.25578888 -0.04399538 52.34291389 -0.0416492 C58.92232142 -0.03986091 65.50171892 -0.0416266 72.08112526 -0.04587364 C73.48964864 -0.04676643 73.48964864 -0.04676643 74.92662704 -0.04767724 C76.83471367 -0.04888909 78.7428003 -0.05010323 80.65088693 -0.05131962 C98.51832685 -0.06217924 116.38574786 -0.06004034 134.25318883 -0.05393478 C150.56423294 -0.04876879 166.87521728 -0.06001547 183.18624958 -0.07903299 C199.97086437 -0.09845125 216.75545094 -0.1066603 233.54007703 -0.10290974 C242.94868615 -0.10100351 252.35724444 -0.10342847 261.76584435 -0.11762428 C269.77697948 -0.12959012 277.78803248 -0.13088516 285.79916885 -0.11883412 C289.87853511 -0.11298129 293.95775155 -0.111745 298.03710747 -0.12383652 C337.59307164 -0.23313545 337.59307164 -0.23313545 354.87361145 6.01069641 C355.60926331 6.26891174 356.34491516 6.52712708 357.1028595 6.79316711 C377.85963873 14.33554233 393.18740419 27.62445002 402.81111145 47.57319641 C410.45064762 64.18691997 412.81329006 81.5780667 412.75930786 99.76208496 C412.76233694 101.16718555 412.76623017 102.57228448 412.77090043 103.97738057 C412.7810921 107.79703373 412.77902142 111.6165921 412.77471983 115.43625271 C412.77223634 119.57206974 412.78128685 123.70786489 412.78875732 127.84367371 C412.80146219 135.93079041 412.80330324 144.01787384 412.80095706 152.10499885 C412.79916877 158.68440638 412.80093446 165.26380388 412.8051815 171.84321022 C412.80577669 172.78222581 412.80637188 173.7212414 412.80698511 174.688712 C412.80819695 176.59679863 412.80941109 178.50488526 412.81062748 180.41297189 C412.8214871 198.28041181 412.8193482 216.14783282 412.81324264 234.01527379 C412.80807666 250.3263179 412.81932333 266.63730224 412.83834086 282.94833454 C412.85775911 299.73294933 412.86596817 316.5175359 412.86221761 333.30216199 C412.86031137 342.71077112 412.86273634 352.1193294 412.87693214 361.52792931 C412.88889798 369.53906444 412.89019302 377.55011744 412.87814198 385.56125381 C412.87228916 389.64062007 412.87105286 393.71983651 412.88314438 397.79919243 C412.99244331 437.3551566 412.99244331 437.3551566 406.74861145 454.63569641 C406.49039612 455.37134827 406.23218079 456.10700012 405.96614075 456.86494446 C398.42376553 477.62172369 385.13485784 492.94948915 365.18611145 502.57319641 C348.57238789 510.21273258 331.18124116 512.57537502 312.9972229 512.52139282 C311.59212231 512.5244219 310.18702338 512.52831513 308.78192729 512.53298539 C304.96227413 512.54317706 301.14271576 512.54110638 297.32305515 512.5368048 C293.18723812 512.5343213 289.05144298 512.54337181 284.91563416 512.55084229 C276.82851745 512.56354716 268.74143402 512.5653882 260.65430901 512.56304202 C254.07490148 512.56125373 247.49550398 512.56301942 240.91609764 512.56726646 C239.50757426 512.56815925 239.50757426 512.56815925 238.07059586 512.56907007 C236.16250923 512.57028192 234.2544226 512.57149605 232.34633597 512.57271244 C214.47889606 512.58357206 196.61147504 512.58143316 178.74403407 512.5753276 C162.43298996 512.57016162 146.12200562 512.58140829 129.81097332 512.60042582 C113.02635853 512.61984407 96.24177196 512.62805313 79.45714587 512.62430257 C70.04853675 512.62239634 60.63997846 512.6248213 51.23137856 512.63901711 C43.22024342 512.65098294 35.20919042 512.65227799 27.19805405 512.64022694 C23.11868779 512.63437412 19.03947135 512.63313782 14.96011543 512.64522934 C-24.59584874 512.75452827 -24.59584874 512.75452827 -41.87638855 506.51069641 C-42.61204041 506.25248108 -43.34769226 505.99426575 -44.1056366 505.72822571 C-64.86241583 498.18585049 -80.19018129 484.8969428 -89.81388855 464.94819641 C-97.45342472 448.33447285 -99.81606716 430.94332612 -99.76208496 412.75930786 C-99.76511404 411.35420728 -99.76900727 409.94910834 -99.77367753 408.54401225 C-99.7838692 404.72435909 -99.78179852 400.90480072 -99.77749693 397.08514011 C-99.77501344 392.94932308 -99.78406395 388.81352794 -99.79153442 384.67771912 C-99.80423929 376.59060241 -99.80608034 368.50351898 -99.80373416 360.41639397 C-99.80194587 353.83698644 -99.80371156 347.25758894 -99.8079586 340.6781826 C-99.80855379 339.73916701 -99.80914898 338.80015142 -99.80976221 337.83268082 C-99.81097405 335.92459419 -99.81218819 334.01650756 -99.81340458 332.10842093 C-99.8242642 314.24098102 -99.8221253 296.37356001 -99.81601974 278.50611904 C-99.81085376 262.19507492 -99.82210043 245.88409058 -99.84111796 229.57305828 C-99.86053621 212.78844349 -99.86874527 196.00385692 -99.8649947 179.21923083 C-99.86308847 169.81062171 -99.86551343 160.40206342 -99.87970924 150.99346352 C-99.89167508 142.98232839 -99.89297012 134.97127538 -99.88091908 126.96013901 C-99.87506626 122.88077275 -99.87382996 118.80155631 -99.88592148 114.72220039 C-99.99522041 75.16623623 -99.99522041 75.16623623 -93.75138855 57.88569641 C-93.49317322 57.15004456 -93.23495789 56.4143927 -92.96891785 55.65644836 C-85.42654263 34.89966913 -72.13763494 19.57190367 -52.18888855 9.94819641 C-35.57516499 2.30866024 -18.18401826 -0.05398219 0 0 Z " fill="#D3D2D2" transform="translate(99.50138854980469,-0.2606964111328125)"/>
<path d="M0 0 C1.18082153 0.01027222 1.18082153 0.01027222 2.38549805 0.02075195 C10.00516905 0.23046767 16.56265347 1.68975504 22.1875 7.125 C22.826875 7.888125 23.46625 8.65125 24.125 9.4375 C24.455 9.7675 24.785 10.0975 25.125 10.4375 C25.79403771 15.5126289 25.76403428 19.32434351 23.1875 23.8125 C18.56457358 28.42244067 12.27140684 30.15880111 6.125 31.8125 C-5.90181891 35.28608434 -12.84360324 44.01496641 -18.875 54.4375 C-20.29324244 57.2273883 -21.5675108 60.06666781 -22.8125 62.9375 C-23.15458496 63.71649658 -23.49666992 64.49549316 -23.84912109 65.2980957 C-26.60409067 71.64636398 -29.07171874 78.07955573 -31.4453125 84.578125 C-32.83814006 88.38021945 -34.34798056 92.12470354 -35.875 95.875 C-38.07109866 101.30775715 -40.08147341 106.7761458 -42 112.3125 C-43.7407785 117.33389105 -45.57632768 122.20946444 -47.8203125 127.03125 C-50.15577319 132.35956031 -52.07723135 137.86875699 -54.09277344 143.32470703 C-55.5908111 147.3709049 -57.11152357 151.4086298 -58.63110352 155.44677734 C-59.85887399 158.71316251 -61.07667271 161.98240857 -62.26953125 165.26171875 C-65.43186886 173.9046366 -68.94905483 182.34865296 -72.6237793 190.78637695 C-74.77010927 195.74814675 -76.74718144 200.69866631 -78.5 205.8125 C-80.84996004 212.65096504 -83.85541334 219.04462552 -86.98681641 225.55249023 C-88.31579529 228.37300863 -89.56692435 231.2269463 -90.82788086 234.07836914 C-116.60885011 292.16218959 -116.60885011 292.16218959 -142.875 305.4375 C-148.91144288 307.44964763 -156.28071114 307.67947561 -162.328125 305.58984375 C-171.60631091 299.61746817 -175.02016013 287.18191468 -177.25219727 276.99829102 C-178.31420959 270.92637815 -178.62939244 264.83667833 -178.9375 258.6875 C-179.06555913 256.19224884 -179.20180009 253.69739913 -179.34765625 251.203125 C-179.40187744 250.11805664 -179.45609863 249.03298828 -179.51196289 247.91503906 C-179.63176514 247.09745117 -179.75156738 246.27986328 -179.875 245.4375 C-180.535 245.1075 -181.195 244.7775 -181.875 244.4375 C-182.08125 245.200625 -182.2875 245.96375 -182.5 246.75 C-184.43847443 251.94863598 -187.13457323 256.62278217 -189.875 261.4375 C-190.45878418 262.46335205 -191.04256836 263.4892041 -191.64404297 264.54614258 C-200.69722137 280.25490483 -211.14357023 297.15364143 -227.875 305.4375 C-228.535 305.7675 -229.195 306.0975 -229.875 306.4375 C-235.6260982 306.92205385 -240.99899383 307.29023008 -246.3125 304.875 C-247.158125 304.070625 -248.00375 303.26625 -248.875 302.4375 C-249.37257813 301.98632812 -249.87015625 301.53515625 -250.3828125 301.0703125 C-264.63827744 286.67157655 -264.39433224 259.77292983 -264.30200195 240.91876221 C-264.07368791 219.37070422 -260.54734486 198.56904413 -256.45068359 177.46337891 C-255.39636931 171.92174564 -254.47536261 166.35747377 -253.55078125 160.79296875 C-252.875 157.4375 -252.875 157.4375 -251.91796875 154.67578125 C-251.00279623 151.83429055 -250.43791214 149.20980379 -249.93359375 146.27734375 C-248.91870718 140.42268593 -247.48056601 134.73490128 -245.9375 129 C-245.3965962 126.96368482 -244.85622482 124.92722814 -244.31640625 122.890625 C-244.06262207 121.93607422 -243.80883789 120.98152344 -243.54736328 119.99804688 C-242.78401229 117.09099344 -242.07246467 114.1735046 -241.375 111.25 C-239.89799474 105.26424183 -238.07567727 99.3882615 -236.27954102 93.49243164 C-234.33944316 87.08718992 -232.5470785 80.6511641 -230.8125 74.1875 C-228.12103881 64.17290405 -225.15468925 54.27656776 -221.875 44.4375 C-221.80759135 42.87631572 -221.78985544 41.3124748 -221.8125 39.75 C-221.82152344 38.94175781 -221.83054687 38.13351563 -221.83984375 37.30078125 C-221.85144531 36.68589844 -221.86304688 36.07101563 -221.875 35.4375 C-234.76147029 35.65591475 -245.03312438 43.81703427 -254.875 51.4375 C-255.70644531 52.06398437 -256.53789062 52.69046875 -257.39453125 53.3359375 C-267.68618175 61.27752607 -279.99785347 71.09800243 -282.875 84.4375 C-283.82796777 93.55666854 -282.04807315 101.5137658 -277.0625 109.25 C-275.19135304 111.12114696 -273.29026828 112.7605093 -271.25 114.4375 C-268.344612 116.89398685 -266.61088591 118.57409897 -265.875 122.4375 C-265.82326391 126.66261401 -266.37551884 129.63476243 -268.625 133.25 C-275.05309118 139.49953309 -281.56214422 139.7202316 -290.21362305 139.67749023 C-301.02839439 139.45758681 -306.40741536 135.09110988 -313.875 127.4375 C-321.4371455 118.4823277 -323.03082146 106.61536743 -322.5 95.2578125 C-321.22264513 81.91477647 -312.45223507 71.81739848 -303.24560547 62.79052734 C-302.06388208 61.62395965 -300.92050604 60.41877841 -299.78515625 59.20703125 C-290.59014729 49.46770886 -278.97574365 41.8126916 -267.875 34.4375 C-267.20823242 33.99180664 -266.54146484 33.54611328 -265.85449219 33.08691406 C-256.189787 26.67166329 -246.27645742 20.88290627 -236 15.5 C-234.99098633 14.96858398 -233.98197266 14.43716797 -232.94238281 13.88964844 C-219.51891478 6.98327632 -205.05596574 0.54133625 -189.6171875 3.93359375 C-184.61864702 5.848619 -182.19518503 9.12717619 -179.625 13.625 C-175.77883877 28.0481046 -182.83060162 44.99310356 -187.13671875 58.71484375 C-187.35425308 59.40959305 -187.57178741 60.10434235 -187.7959137 60.82014465 C-189.37429044 65.85566642 -190.96485609 70.88729143 -192.55859375 75.91796875 C-197.55554169 91.69647279 -202.51373877 107.46884681 -206.875 123.4375 C-207.1529541 124.45070313 -207.4309082 125.46390625 -207.71728516 126.5078125 C-213.97975161 149.387145 -220.0278808 172.22430855 -224 195.625 C-224.17088135 196.62305664 -224.3417627 197.62111328 -224.51782227 198.64941406 C-226.45258193 210.32159641 -227.09970724 221.79638845 -227.1875 233.625 C-227.23100586 235.59629883 -227.23100586 235.59629883 -227.27539062 237.60742188 C-227.3241614 245.04684086 -226.93909679 250.12893161 -222.875 256.4375 C-217.09238054 255.20017419 -215.00492713 251.25080307 -211.875 246.4375 C-201.44101107 228.04244259 -194.1865254 207.75451564 -186.96240234 187.93359375 C-171.46675814 145.58448358 -171.46675814 145.58448358 -153.8125 136.9375 C-150.10236228 136.3059872 -147.51610302 136.4444719 -143.875 137.4375 C-140.69369764 139.97883191 -139.07237945 141.47266999 -138.24609375 145.51171875 C-138.42461379 155.22530905 -139.73393904 164.53803986 -141.30151367 174.12182617 C-144.11596017 191.66683331 -145.03572705 209.27191275 -145.17053223 227.0222168 C-145.18163487 228.47993795 -145.19685159 229.93763502 -145.2166748 231.39526367 C-145.33093279 241.15096299 -144.32181578 249.9825891 -141.875 259.4375 C-139.79946352 259.9909764 -138.03134036 260.4375 -135.875 260.4375 C-135.46507812 259.58671875 -135.46507812 259.58671875 -135.046875 258.71875 C-133.84443991 256.3780097 -132.51148142 254.17376035 -131.125 251.9375 C-126.14123246 243.65958367 -122.01568733 235.24979613 -118.859375 226.1171875 C-117.89447589 223.49051769 -116.77240761 221.02195027 -115.5625 218.5 C-112.09188262 211.01021782 -109.54970724 203.19165277 -106.88574219 195.38867188 C-105.80029645 192.21938008 -104.70221901 189.05466532 -103.6015625 185.890625 C-99.61780528 174.43033251 -95.69362771 162.95390219 -91.875 151.4375 C-85.75768849 132.99967092 -79.61164858 114.57216362 -73.35055542 96.18255615 C-72.74970634 94.417262 -72.14968766 92.65168494 -71.55056763 90.88580322 C-68.18981341 80.98541724 -64.73472444 71.15654454 -60.875 61.4375 C-60.55732666 60.62998291 -60.23965332 59.82246582 -59.91235352 58.99047852 C-53.38341311 42.50440651 -53.38341311 42.50440651 -48.875 35.4375 C-48.25238281 34.44621094 -47.62976563 33.45492187 -46.98828125 32.43359375 C-36.26796054 16.13177752 -20.88023075 -0.27971588 0 0 Z " fill="#657C94" transform="translate(403.875,95.5625)"/>
</svg>
